<?xml version="1.0" encoding="UTF-8"?>
<svg id="Livello_1" data-name="Livello 1" xmlns="http://www.w3.org/2000/svg" viewBox="0 0 48 48">
  <defs>
    <style>
      .cls-1 {
        fill: #fff;
      }

      .cls-2 {
        fill: #231f20;
      }
    </style>
  </defs>
  <path class="cls-1" d="m11.3,40.05c-.93,0-1.72-.32-2.38-.97-.65-.65-.98-1.44-.98-2.38V11.3c0-.93.33-1.72.98-2.38.65-.65,1.44-.98,2.38-.98h25.4c.93,0,1.73.33,2.38.98.65.65.97,1.44.97,2.38v25.4c0,.93-.32,1.73-.97,2.38-.65.65-1.44.97-2.38.97H11.3Zm0-1.75h25.4c.4,0,.77-.17,1.1-.5.33-.33.5-.7.5-1.1V11.3c0-.4-.17-.77-.5-1.1-.33-.33-.7-.5-1.1-.5H11.3c-.4,0-.77.17-1.1.5-.33.33-.5.7-.5,1.1v25.4c0,.4.17.77.5,1.1.33.33.7.5,1.1.5Zm-1.6-28.6v28.6V9.7Z"/>
  <polygon class="cls-2" points="17.14 30.56 18.51 29.25 13.2 23.95 18.39 18.7 17.03 17.39 10.52 23.95 17.14 30.56"/>
  <polygon class="cls-2" points="30.76 30.6 37.29 24.01 30.76 17.42 29.4 18.73 34.68 24.01 29.4 29.29 30.76 30.6"/>
  <polygon class="cls-1" points="19.19 29.75 20.39 28.6 15.74 23.95 20.29 19.35 19.09 18.2 13.39 23.95 19.19 29.75"/>
  <polygon class="cls-1" points="28.69 29.81 34.44 24.01 28.69 18.21 27.49 19.36 32.14 24.01 27.49 28.66 28.69 29.81"/>
  <path class="cls-2" d="m10.59,41.98c-1.05,0-2.51-.63-3.24-1.36-.73-.73-1.43-2.06-1.43-3.05V10.44c0-1.09.67-2.34,1.4-3.07.73-.73,2.21-1.33,3.26-1.33h27.17c1.05,0,2.28.56,3.01,1.28.73.73,1.36,2.1,1.36,3.15v26.95c0,1.04-.69,2.42-1.42,3.15-.73.73-2.13,1.41-3.18,1.41H10.59Zm.2-1.93h26.39c.45,0,1.67-.62,2.04-.99.38-.37.83-1.66.83-2.1V10.82c0-.45-.49-1.41-.87-1.78-.38-.37-1.44-1.04-1.89-1.04l-26.61-.05c-.45,0-1.53.59-1.9.97-.38.37-.89,1.75-.89,2.2v26.11c0,.45.63,1.54,1,1.92.38.37,1.45.91,1.9.91ZM7.89,7.04v32.02V7.04Z"/>
</svg>